<svg width="36" height="36" viewBox="0 0 36 36" fill="none" xmlns="http://www.w3.org/2000/svg">
<path opacity="0.2" d="M32.0448 20.797C31.3663 23.0276 30.1218 25.0445 28.4324 26.6512C26.7429 28.2579 24.6662 29.3998 22.4044 29.9654C20.1426 30.5311 17.7728 30.5014 15.5259 29.8791C13.279 29.2569 11.2316 28.0634 9.58297 26.4148C7.93437 24.7662 6.74082 22.7187 6.11858 20.4718C5.49634 18.2249 5.46661 15.8551 6.0323 13.5933C6.59798 11.3315 7.73978 9.25478 9.34651 7.56534C10.9532 5.87591 12.9701 4.63138 15.2007 3.95297C14.4935 6.29306 14.4343 8.78118 15.0295 11.1522C15.6247 13.5233 16.852 15.6885 18.5806 17.4171C20.3092 19.1457 22.4744 20.373 24.8455 20.9682C27.2165 21.5634 29.7047 21.5043 32.0448 20.797Z" fill="black"/>
<path d="M32.8397 20.0011C32.6954 19.8565 32.5144 19.7539 32.3162 19.7043C32.118 19.6548 31.9101 19.6602 31.7147 19.7198C29.5696 20.3683 27.2887 20.4227 25.1151 19.8772C22.9415 19.3316 20.9566 18.2066 19.372 16.6219C17.7873 15.0373 16.6623 13.0524 16.1167 10.8788C15.5712 8.70524 15.6256 6.42435 16.2741 4.27922C16.3343 4.08375 16.34 3.87558 16.2907 3.67708C16.2415 3.47858 16.139 3.29727 15.9944 3.15266C15.8498 3.00804 15.6685 2.90558 15.47 2.8563C15.2715 2.80702 15.0633 2.81278 14.8678 2.87297C11.9021 3.78147 9.29842 5.60221 7.42736 8.07609C5.79106 10.2485 4.79296 12.8342 4.5452 15.5427C4.29743 18.2511 4.80981 20.975 6.02477 23.4083C7.23974 25.8416 9.10915 27.8879 11.423 29.3173C13.7368 30.7467 16.4034 31.5026 19.1231 31.5C22.2961 31.5097 25.3846 30.4782 27.915 28.5637C30.3889 26.6927 32.2096 24.089 33.1181 21.1233C33.1776 20.9285 33.1831 20.7213 33.1341 20.5237C33.0851 20.326 32.9833 20.1454 32.8397 20.0011ZM26.5622 26.7666C24.1794 28.5613 21.2284 29.4349 18.2526 29.2265C15.2768 29.0182 12.4764 27.7419 10.3669 25.6326C8.25743 23.5233 6.98089 20.723 6.77228 17.7471C6.56367 14.7713 7.43703 11.8203 9.23157 9.43734C10.4007 7.89336 11.9123 6.64178 13.6472 5.78109C13.5484 6.47469 13.4986 7.17439 13.4981 7.875C13.5022 11.7525 15.0444 15.4701 17.7862 18.2119C20.5281 20.9537 24.2456 22.4959 28.1231 22.5C28.8251 22.4998 29.5263 22.45 30.2213 22.3509C29.3598 24.0862 28.1072 25.5977 26.5622 26.7666Z" fill="black"/>
</svg>
